<?xml version="1.0" encoding="UTF-8"?>
<svg width="1001px" height="1000px" viewBox="0 0 1001 1000" version="1.1" xmlns="http://www.w3.org/2000/svg" xmlns:xlink="http://www.w3.org/1999/xlink">
    <!-- Generator: Sketch 55.1 (78136) - https://sketchapp.com -->
    <title>编组 168</title>
    <desc>Created with Sketch.</desc>
    <g id="1000个上传" stroke="none" stroke-width="1" fill="none" fill-rule="evenodd">
        <g id="14" transform="translate(-8610.000000, -3620.000000)">
            <g id="编组-168" transform="translate(8610.444444, 3620.000000)">
                <rect id="矩形复制-118" x="0" y="0" width="1000" height="1000"></rect>
                <g id="257" transform="translate(71.000000, 104.000000)" fill-rule="nonzero">
                    <g id="编组">
                        <polygon id="路径" fill="#ADB3BA" points="401.351391 788.933926 342.22373 548.457646 351.182467 544.729332 410.310127 787.069769"></polygon>
                        <polygon id="路径" fill="#ADB3BA" points="179.174728 788.933926 170.215992 787.069769 206.050937 527.951917 215.009674 529.816074"></polygon>
                        <polygon id="路径" fill="#ADB3BA" points="449.728567 788.933926 388.80916 548.457646 397.767896 544.729332 458.687304 787.069769"></polygon>
                        <polygon id="路径" fill="#ADB3BA" points="227.551904 788.933926 218.593168 787.069769 252.636366 527.951917 261.595103 529.816074"></polygon>
                        <path d="M168.424244,520.495288 C168.424244,522.359445 200.675695,548.457646 256.219861,559.642589 C311.764027,570.827533 449.728567,548.457646 474.813029,529.816074 C499.897491,511.174502 474.813029,414.238327 455.103809,397.460912 C435.394589,380.683498 419.268863,388.140126 397.767896,352.721139 C378.058676,317.302152 249.052872,291.203952 209.634432,313.573838 C170.215992,335.943725 116.463573,417.966642 168.424244,520.495288 Z" id="路径" fill="#66C6B9"></path>
                        <path d="M241.885883,729.280895 C241.885883,729.280895 243.67763,706.911009 243.67763,690.133594 C243.67763,673.356179 286.679565,658.442921 286.679565,658.442921 C286.679565,658.442921 290.263059,725.552581 293.846554,738.601681 C297.430048,751.650782 297.430048,751.650782 297.430048,751.650782 C297.430048,751.650782 252.636366,772.156511 241.885883,729.280895 Z" id="路径" fill="#E8EAE9"></path>
                        <path d="M241.885883,721.824266 C241.885883,721.824266 245.469377,736.737524 259.803356,742.329996 C274.137334,746.05831 290.263059,729.280895 292.054807,725.552581 C292.054807,725.552581 295.638301,751.650782 308.180532,760.971568 C320.722763,770.292354 338.640236,792.66224 338.640236,792.66224 C338.640236,792.66224 326.098005,807.575498 304.597037,805.711341 C283.09607,803.847184 252.636366,783.341454 247.261125,774.020668 C241.885883,764.699882 232.927146,755.379096 241.885883,721.824266" id="路径" fill="#1A2056"></path>
                        <path d="M421.060611,785.205611 L417.477116,790.798083 L417.477116,798.254712 L438.978083,803.847184 L438.978083,800.118869 C438.978083,800.118869 449.728567,798.254712 458.687304,805.711341 C467.64604,813.16797 476.604776,820.624598 489.147007,820.624598 C499.897491,820.624598 514.231469,818.760441 516.023216,811.303812 C519.606711,805.711341 451.520314,785.205611 421.060611,785.205611 Z" id="路径" fill="#0D439B"></path>
                        <path d="M419.268863,790.798083 C419.268863,790.798083 413.893622,762.835725 424.644105,749.786625 C424.644105,749.786625 422.852358,755.379096 428.2276,757.243253 C431.811094,759.107411 440.769831,753.514939 455.103809,746.05831 C469.437787,738.601681 481.980018,746.05831 481.980018,746.05831 C481.980018,746.05831 496.313996,772.156511 501.689238,777.748983 C508.856227,783.341454 541.107678,798.254712 550.066415,798.254712 C559.025151,798.254712 551.858162,824.352913 530.357195,822.488756 C508.856227,820.624598 478.396524,815.032127 465.854293,803.847184 C451.520314,792.66224 419.268863,790.798083 419.268863,790.798083 Z" id="路径" fill="#1A2056"></path>
                        <path d="M831.370738,842.994485 L535.732437,842.994485 C526.7737,842.994485 519.606711,839.26617 514.231469,831.809542 C508.856227,826.21707 507.06448,816.896284 507.06448,807.575498 L544.691173,550.321803 L718.490659,554.050118 L854.663452,796.390555 C860.038694,805.711341 860.038694,816.896284 854.663452,826.21707 C851.079958,837.402013 842.121221,842.994485 831.370738,842.994485 Z M551.858162,559.642589 L516.023216,809.439655 C516.023216,815.032127 516.023216,822.488756 521.398458,826.21707 C524.981953,831.809542 530.357195,833.673699 537.524184,833.673699 L833.162485,833.673699 C840.329474,833.673699 847.496463,829.945384 851.079958,822.488756 C854.663452,815.032127 854.663452,807.575498 851.079958,801.983026 L716.698912,563.370904 L551.858162,559.642589 Z" id="形状" fill="#CED6E0"></path>
                        <ellipse id="椭圆形" fill="#1A2056" cx="182.758222" cy="309.845524" rx="21.5009674" ry="33.5548297"></ellipse>
                        <path d="M175.591233,503.717873 C175.591233,503.717873 204.25919,544.729332 222.176663,548.457646 C222.176663,548.457646 211.426179,578.284161 222.176663,619.29562 C232.927146,660.307079 243.67763,701.318537 243.67763,701.318537 C243.67763,701.318537 258.011608,699.45438 268.762092,697.590223 C279.512576,695.726066 297.430048,686.40528 297.430048,673.356179 C297.430048,660.307079 297.430048,626.752249 297.430048,604.382362 C297.430048,582.012476 295.638301,568.963375 299.221796,559.642589 C302.80529,552.185961 297.430048,544.729332 313.555774,541.001017 C329.681499,537.272703 385.225665,537.272703 385.225665,537.272703 L464.062545,548.457646 C464.062545,548.457646 447.93682,654.714607 446.145073,665.89955 C446.145073,665.89955 453.312062,664.035393 465.854293,671.492022 C478.396524,678.948651 498.105744,684.541122 498.105744,684.541122 C498.105744,684.541122 526.7737,623.023934 532.148942,604.382362 C537.524184,585.74079 559.025151,527.951917 562.608646,509.310345 C567.983888,490.668773 567.983888,458.9781 535.732437,445.929 C503.480985,432.879899 473.021282,432.879899 473.021282,432.879899 L215.009674,417.966642 L175.591233,503.717873 Z" id="路径" fill="#2A3F4F"></path>
                        <path d="M258.011608,164.441262 C258.011608,164.441262 263.38685,181.218676 265.178597,186.811148 C266.970345,192.40362 274.137334,231.550921 274.137334,231.550921 L317.139268,240.871707 L329.681499,211.045192 C329.681499,211.045192 336.848489,207.316877 338.640236,190.539462 C340.431983,173.762048 340.431983,158.84879 340.431983,145.799689 C340.431983,132.750589 336.848489,112.24486 336.848489,112.24486 C336.848489,112.24486 333.264994,93.6032876 327.889752,86.1466588 C322.51451,78.69003 252.636366,95.4674448 249.052872,110.380703 C245.469377,125.29396 256.219861,158.84879 258.011608,164.441262 C258.011608,164.441262 258.011608,164.441262 258.011608,164.441262 Z" id="路径" fill="#FFD9CC"></path>
                        <path d="M270.553839,214.773506 C268.762092,203.588563 266.970345,192.40362 265.178597,188.675305 C263.38685,184.946991 261.595103,175.626205 259.803356,170.033733 C261.595103,173.762048 261.595103,177.490362 263.38685,183.082834 C265.178597,192.40362 268.762092,203.588563 270.553839,214.773506 Z" id="路径" fill="#FFD9CC"></path>
                        <path d="M317.139268,240.871707 L327.889752,214.773506 C327.889752,214.773506 315.347521,224.094292 299.221796,218.501821 C283.09607,212.909349 265.178597,190.539462 265.178597,190.539462 C265.178597,190.539462 284.887817,227.822607 317.139268,240.871707 Z" id="路径" fill="#FBC5B3"></path>
                        <path d="M299.221796,225.958449 L304.597037,225.958449 L340.431983,222.230135 L395.976149,423.559113 C395.976149,423.559113 356.557709,464.570572 320.722763,466.434729 C284.887817,468.298886 225.760157,445.929 215.009674,440.336528 C206.050937,434.744057 258.011608,220.365978 258.011608,220.365978 L299.221796,225.958449 Z" id="路径" fill="#8AD7F8"></path>
                        <g transform="translate(285.381197, 227.817091)" fill="#E8EAE9" id="路径">
                            <path d="M19.2158404,20.5112444 L24.5910822,26.103716 C24.5910822,26.103716 28.1745768,39.1528164 29.9663241,42.8811309 C29.9663241,46.6094453 60.4260278,262.851681 60.4260278,262.851681 L42.508555,288.949882 L19.2158404,268.444153 C19.2158404,268.444153 1.29836759,78.3001178 4.88186215,61.5227029 C6.67360943,44.7452881 12.0488513,27.9678732 12.0488513,27.9678732 L19.2158404,20.5112444 Z"></path>
                            <path d="M6.67360943,1.86967231 L13.8405985,0.00551509959 L19.2158404,0.00551509959 L31.7580713,5.59798672 C31.7580713,5.59798672 24.5910822,20.5112444 26.3828295,27.9678732 C21.0075877,26.103716 17.4240931,26.103716 12.0488513,29.8320304 C12.0488513,29.8320304 8.46535671,13.0546155 3.09011487,9.32630114 C-4.07687424,5.59798672 6.67360943,1.86967231 6.67360943,1.86967231 Z"></path>
                        </g>
                        <path d="M254.428114,160.712947 C254.428114,160.712947 243.67763,162.577104 227.551904,166.305419 C211.426179,170.033733 177.382981,173.762048 177.382981,173.762048 C177.382981,173.762048 186.341717,188.675305 184.54997,211.045192 C184.54997,235.279235 197.092201,255.784965 197.092201,270.698222 C197.092201,285.61148 173.799486,421.694956 159.465508,451.521471 C145.13153,481.347987 136.172793,494.397087 134.381046,520.495288 C130.797551,546.593489 123.630562,585.74079 134.381046,593.197419 C145.13153,600.654048 159.465508,565.235061 179.174728,535.408546 C198.883948,505.58203 254.428114,393.732598 259.803356,362.041925 C265.178597,328.487096 254.428114,160.712947 254.428114,160.712947 Z" id="路径" fill="#1A2056"></path>
                        <path d="M209.634432,371.362712 L220.384915,376.955183 C220.384915,376.955183 232.927146,380.683498 227.551904,335.943725 C227.551904,335.943725 216.801421,339.672039 213.217926,343.400353 C209.634432,347.128668 209.634432,371.362712 209.634432,371.362712 Z" id="路径" fill="#ADB3BA"></path>
                        <path d="M272.345586,231.550921 L272.345586,261.377436 C272.345586,281.883166 258.011608,362.041925 258.011608,362.041925 C258.011608,362.041925 259.803356,319.16631 254.428114,306.117209 C250.844619,293.068109 229.343652,240.871707 229.343652,240.871707 L243.67763,231.550921 L232.927146,224.094292 L252.636366,162.577104 C252.636366,162.577104 254.428114,162.577104 254.428114,164.441262 C254.428114,164.441262 254.428114,166.305419 254.428114,166.305419 C254.428114,166.305419 254.428114,166.305419 254.428114,166.305419 C254.428114,166.305419 259.803356,183.082834 261.595103,188.675305 C265.178597,192.40362 272.345586,224.094292 272.345586,231.550921 Z" id="路径" fill="#0D439B"></path>
                        <path d="M272.345586,259.513279 L272.345586,261.377436 C272.345586,281.883166 258.011608,362.041925 258.011608,362.041925 C258.011608,362.041925 259.803356,319.16631 254.428114,306.117209 C250.844619,293.068109 229.343652,240.871707 229.343652,240.871707 L243.67763,231.550921 L232.927146,224.094292 L252.636366,162.577104 C254.428114,164.441262 256.219861,166.305419 256.219861,170.033733 C258.011608,173.762048 258.011608,177.490362 259.803356,183.082834 C263.38685,194.267777 265.178597,203.588563 266.970345,214.773506 L266.970345,214.773506 C272.345586,229.686764 272.345586,244.600021 272.345586,259.513279 Z" id="路径" fill="#0D439B"></path>
                        <path d="M216.801421,341.536196 C216.801421,341.536196 231.135399,343.400353 231.135399,341.536196 C231.135399,337.807882 232.927146,335.943725 236.510641,332.21541 C240.094135,330.351253 243.67763,330.351253 247.261125,330.351253 C252.636366,330.351253 263.38685,330.351253 265.178597,334.079567 C268.762092,337.807882 265.178597,343.400353 259.803356,341.536196 C254.428114,341.536196 250.844619,341.536196 249.052872,343.400353 C247.261125,345.264511 247.261125,345.264511 247.261125,345.264511 C247.261125,345.264511 259.803356,348.992825 265.178597,347.128668 C270.553839,345.264511 281.304323,345.264511 286.679565,345.264511 C292.054807,347.128668 297.430048,348.992825 295.638301,352.721139 C295.638301,352.721139 299.221796,354.585297 297.430048,358.313611 C295.638301,362.041925 286.679565,365.77024 275.929081,365.77024 C263.38685,365.77024 245.469377,369.498554 234.718894,367.634397 C223.96841,367.634397 207.842684,363.906083 193.508706,362.041925 C179.174728,362.041925 179.174728,362.041925 179.174728,362.041925 L216.801421,341.536196 Z" id="路径" fill="#FFD9CC"></path>
                        <path d="M265.178597,155.120475 C268.762092,164.441262 268.762092,173.762048 265.178597,175.626205 C259.803356,177.490362 254.428114,171.89789 249.052872,162.577104 C245.469377,153.256318 245.469377,143.935532 249.052872,142.071375 C254.428114,140.207218 259.803356,145.799689 265.178597,155.120475 Z" id="路径" fill="#FFD9CC"></path>
                        <path d="M471.229534,328.487096 C471.229534,341.536196 467.64604,350.856982 467.64604,350.856982 L440.769831,354.585297 C440.769831,354.585297 438.978083,317.302152 406.726632,309.845524 C404.934885,296.796423 403.143138,285.61148 403.143138,278.154851 C403.143138,248.328336 426.435852,186.811148 426.435852,186.811148 C426.435852,186.811148 437.186336,194.267777 435.394589,207.316877 C433.602842,220.365978 442.561578,225.958449 442.561578,233.415078 C442.561578,240.871707 440.769831,242.735864 442.561578,250.192493 C446.145073,255.784965 473.021282,315.437995 471.229534,328.487096 Z" id="路径" fill="#0D439B"></path>
                        <path d="M471.229534,432.879899 C471.229534,432.879899 438.978083,436.608214 426.435852,438.472371 C412.101874,440.336528 404.934885,440.336528 399.559643,434.744057 C392.392654,429.151585 361.93295,363.906083 361.93295,363.906083 C361.93295,363.906083 351.182467,311.709681 349.390719,263.241593 C349.390719,231.550921 342.22373,196.131934 338.640236,175.626205 C338.640236,170.033733 338.640236,164.441262 338.640236,158.84879 C345.807225,160.712947 365.516445,166.305419 379.850423,170.033733 C397.767896,175.626205 428.2276,183.082834 428.2276,183.082834 C428.2276,183.082834 404.934885,244.600021 404.934885,274.426537 C404.934885,304.253052 422.852358,406.781698 430.019347,414.238327 C438.978083,425.423271 471.229534,432.879899 471.229534,432.879899 Z" id="路径" fill="#1A2056"></path>
                        <path d="M404.934885,350.856982 C404.934885,350.856982 392.392654,348.992825 397.767896,307.981366 C397.767896,307.981366 404.934885,304.253052 413.893622,309.845524 C422.852358,315.437995 430.019347,332.21541 426.435852,339.672039 C422.852358,347.128668 408.51838,350.856982 404.934885,350.856982 Z" id="路径" fill="#CED6E0"></path>
                        <path d="M383.433918,412.37417 C381.64217,410.510013 358.349456,378.81934 347.598972,337.807882 C340.431983,309.845524 335.056741,250.192493 331.473247,211.045192 C333.264994,207.316877 335.056741,203.588563 336.848489,194.267777 C336.848489,186.811148 338.640236,181.218676 338.640236,173.762048 L363.724698,220.365978 L358.349456,231.550921 L374.475181,233.415078 C374.475181,233.415078 365.516445,307.981366 367.308192,328.487096 C369.09994,347.128668 383.433918,408.645856 383.433918,412.37417 Z" id="路径" fill="#0D439B"></path>
                        <path d="M404.934885,306.117209 L397.767896,307.981366 C397.767896,307.981366 388.80916,307.981366 383.433918,306.117209 C378.058676,304.253052 367.308192,298.66058 361.93295,302.388895 C356.557709,304.253052 345.807225,324.758781 345.807225,324.758781 L388.80916,348.992825 C388.80916,348.992825 394.184401,347.128668 395.976149,345.264511 C397.767896,343.400353 406.726632,348.992825 419.268863,345.264511 C433.602842,343.400353 433.602842,343.400353 433.602842,343.400353 C433.602842,343.400353 426.435852,324.758781 422.852358,317.302152 C419.268863,309.845524 410.310127,307.981366 404.934885,306.117209 Z" id="路径" fill="#FFD9CC"></path>
                        <path d="M612.77757,91.7391304 L627.111548,102.924074 L627.111548,106.652388 L596.651844,188.675305 C596.651844,188.675305 587.693108,177.490362 580.526119,175.626205 C573.359129,173.762048 560.816898,186.811148 551.858162,184.946991 C542.899426,183.082834 539.315931,179.354519 537.524184,175.626205 C535.732437,170.033733 521.398458,170.033733 528.565447,162.577104 C528.565447,162.577104 523.190206,164.441262 523.190206,158.84879 C523.190206,153.256318 517.814964,151.392161 517.814964,151.392161 C517.814964,151.392161 501.689238,155.120475 503.480985,145.799689 C505.272733,136.478903 508.856227,125.29396 508.856227,125.29396 C508.856227,125.29396 507.06448,123.429803 503.480985,121.565646 C499.897491,119.701489 485.563513,101.059916 487.35526,84.2825016 C489.147007,67.5050867 551.858162,48.8635147 576.942624,50.7276719 C600.235339,54.4559863 612.77757,91.7391304 612.77757,91.7391304 Z" id="路径" fill="#FFD9CC"></path>
                        <g transform="translate(466.892987, 654.533840)" id="路径">
                            <path d="M77.7981862,0.180766759 C77.7981862,0.180766759 95.715659,44.9205397 111.841385,54.2413258 C127.96711,63.5621118 133.342352,72.8828978 133.342352,72.8828978 L63.464208,104.57357 C63.464208,104.57357 63.464208,78.4753695 54.5054716,59.8337974 C45.5467352,39.3280681 24.0457678,18.8223388 24.0457678,18.8223388 L77.7981862,0.180766759 Z" fill="#E8EAE9"></path>
                            <path d="M67.0477025,123.215142 C67.0477025,123.215142 45.5467352,136.264243 31.212757,139.992557 C16.8787787,143.720872 0.753053204,149.313343 0.753053204,160.498287 C0.753053204,171.68323 18.670526,177.275701 36.5879988,177.275701 C54.5054716,177.275701 84.9651753,171.68323 93.9239117,160.498287 C102.882648,149.313343 117.216626,138.1284 117.216626,138.1284 L124.383615,145.585029 C124.383615,145.585029 160.218561,126.943457 163.802056,115.758514 C169.177297,104.57357 165.593803,104.57357 165.593803,104.57357 L156.635067,91.5244699 L67.0477025,123.215142 Z" fill="#1A2056"></path>
                            <path d="M59.8807134,91.5244699 C59.8807134,91.5244699 70.6311971,80.3395267 90.3404172,80.3395267 C110.049637,80.3395267 127.96711,65.426269 127.96711,65.426269 C127.96711,65.426269 142.301088,69.1545834 156.635067,89.6603127 C156.635067,89.6603127 133.342352,100.845256 119.008374,112.030199 C104.674395,125.0793 97.5074063,130.671771 84.9651753,134.400086 C70.6311971,139.992557 9.7117896,141.856714 0.753053204,160.498287 C0.753053204,160.498287 -1.03869407,153.041658 15.0870314,145.585029 C31.212757,136.264243 49.1302297,130.671771 52.7137243,121.350985 C58.0889661,108.301885 59.8807134,91.5244699 59.8807134,91.5244699 Z" fill="#0D439B"></path>
                        </g>
                        <path d="M476.604776,475.755515 C476.604776,475.755515 404.934885,485.076301 390.600907,496.261244 C376.266929,507.446188 374.475181,529.816074 378.058676,542.865175 C381.64217,554.050118 498.105744,695.726066 508.856227,701.318537 C508.856227,701.318537 517.814964,688.269437 532.148942,678.948651 C546.48292,669.627865 550.066415,656.578764 550.066415,656.578764 C550.066415,656.578764 501.689238,596.925734 487.35526,576.420004 C473.021282,555.914275 467.64604,554.050118 467.64604,554.050118 L539.315931,514.902816 L476.604776,475.755515 Z" id="路径" fill="#1A2056"></path>
                        <path d="M788.368803,820.624598 L512.439722,820.624598 C505.272733,820.624598 498.105744,816.896284 492.730502,811.303812 C487.35526,805.711341 485.563513,796.390555 487.35526,788.933926 L521.398458,548.457646 L684.447461,552.185961 L811.661518,777.748983 C817.036759,787.069769 817.036759,796.390555 811.661518,805.711341 C806.286276,815.032127 797.327539,820.624598 788.368803,820.624598 Z M528.565447,557.778432 L494.522249,790.798083 C494.522249,796.390555 494.522249,801.983026 498.105744,805.711341 C501.689238,809.439655 507.06448,813.16797 512.439722,813.16797 L788.368803,813.16797 C795.535792,813.16797 800.911034,809.439655 804.494528,803.847184 C808.078023,798.254712 808.078023,790.798083 804.494528,783.341454 L679.072219,561.506747 L528.565447,557.778432 Z" id="形状" fill="#ADB3BA"></path>
                        <path d="M340.431983,693.861908 C340.431983,693.861908 344.015478,705.046852 365.516445,708.775166 C385.225665,712.50348 410.310127,727.416738 410.310127,727.416738 C410.310127,727.416738 462.270798,624.888092 467.64604,604.382362 C473.021282,583.876633 476.604776,554.050118 476.604776,554.050118 C476.604776,554.050118 535.732437,546.593489 594.860097,550.321803 C653.987757,554.050118 738.199879,518.631131 747.158615,498.125402 C756.117352,477.619672 761.492594,432.879899 761.492594,432.879899 L575.150877,447.793157 C575.150877,447.793157 567.983888,460.842257 551.858162,462.706415 C533.940689,464.570572 462.270798,466.434729 446.145073,473.891358 C430.019347,479.48383 413.893622,481.347987 406.726632,513.038659 C399.559643,544.729332 367.308192,628.616406 340.431983,693.861908 Z" id="路径" fill="#0D439B"></path>
                        <g transform="translate(558.557739, 106.652388)" id="路径">
                            <path d="M68.5538089,0 C68.5538089,0 36.3023579,31.6906725 29.1353688,82.0229171 L57.8033253,106.256961 L91.8465236,26.0982009 L68.5538089,0 Z" fill="#CED6E0"></path>
                            <path d="M201.143108,283.351895 L179.64214,389.608856 C179.64214,389.608856 14.8013906,378.423913 4.05090689,357.918184 C-6.69957678,337.412454 7.63440145,249.797066 13.0096433,229.291336 C18.3848851,210.649764 36.3023579,164.045834 47.0528416,113.71359 C57.8033253,63.381345 91.8465236,22.3698865 91.8465236,22.3698865 L102.597007,24.2340437 C102.597007,24.2340437 133.056711,41.0114586 143.807195,48.4680874 C154.557678,55.9247162 179.64214,87.6153887 185.017382,102.528646 C186.809129,119.306061 201.143108,283.351895 201.143108,283.351895 Z" fill="#1A2056"></path>
                        </g>
                        <path d="M641.445526,115.973174 C641.445526,115.973174 628.903295,123.429803 618.152811,162.577104 C605.61058,201.724406 596.651844,248.328336 591.276602,265.105751 C585.90136,281.883166 571.567382,335.943725 571.567382,335.943725 C571.567382,335.943725 596.651844,270.698222 603.818833,244.600021 C609.194075,218.501821 621.736306,156.984633 661.154746,130.886432 L641.445526,115.973174 Z" id="路径" fill="#0D439B"></path>
                        <path d="M499.897491,557.778432 C499.897491,557.778432 523.190206,537.272703 539.315931,514.902816 C555.441657,492.53293 603.818833,427.287428 648.612515,408.645856 C693.406197,390.004284 815.245012,363.906083 815.245012,363.906083 C815.245012,363.906083 795.535792,445.929 791.952297,479.48383 C788.368803,513.038659 766.867836,570.827533 702.364933,576.420004 C637.862031,580.148319 499.897491,557.778432 499.897491,557.778432 Z" id="路径" fill="#66C6B9"></path>
                        <path d="M627.111548,102.924074 C621.736306,108.516545 600.235339,112.24486 594.860097,104.788231 C589.484855,95.4674448 571.567382,89.8749732 564.400393,97.3316021 C557.233404,106.652388 562.608646,119.701489 562.608646,119.701489 L553.649909,123.429803 C553.649909,123.429803 551.858162,117.837331 548.274667,114.109017 C544.691173,108.516545 532.148942,106.652388 532.148942,99.1957593 C532.148942,91.7391304 524.981953,78.69003 514.231469,76.8258728 C503.480985,74.9617156 489.147007,82.4183444 489.147007,82.4183444 C489.147007,82.4183444 476.604776,78.69003 480.188271,67.5050867 C483.771765,56.3201435 508.856227,13.4445277 541.107678,2.25958449 C573.359129,-5.19704433 609.194075,19.0369994 618.152811,39.5427286 C625.3198,60.0484579 627.111548,102.924074 627.111548,102.924074 Z" id="路径" fill="#0D439B"></path>
                        <path d="M567.983888,179.354519 L567.983888,179.354519 C573.359129,177.490362 576.942624,173.762048 580.526119,175.626205 C582.317866,175.626205 584.109613,177.490362 585.90136,177.490362 C591.276602,153.256318 587.693108,125.29396 587.693108,125.29396 C587.693108,147.663847 567.983888,179.354519 567.983888,179.354519 Z" id="路径" fill="#FBC5B3"></path>
                        <path d="M397.767896,307.981366 C397.767896,307.981366 412.101874,306.117209 417.477116,313.573838 C422.852358,321.030467 422.852358,345.264511 404.934885,350.856982 L442.561578,350.856982 C442.561578,350.856982 446.145073,328.487096 435.394589,317.302152 C424.644105,306.117209 413.893622,304.253052 397.767896,307.981366 Z" id="路径" fill="#F3F3F3"></path>
                        <path d="M446.145073,265.105751 L446.145073,326.622939 C442.561578,328.487096 438.978083,330.351253 437.186336,334.079567 C431.811094,324.758781 424.644105,311.709681 408.51838,307.981366 C406.726632,294.932266 404.934885,285.61148 404.934885,278.154851 C404.934885,274.426537 404.934885,270.698222 404.934885,266.969908 L446.145073,266.969908 L446.145073,265.105751 Z" id="路径" fill="#0D439B"></path>
                        <path d="M507.06448,367.634397 C507.06448,367.634397 499.897491,365.77024 490.938755,365.77024 C481.980018,365.77024 474.813029,369.498554 467.64604,365.77024 C462.270798,362.041925 460.479051,360.177768 455.103809,362.041925 C451.520314,363.906083 449.728567,365.77024 447.93682,365.77024 C446.145073,365.77024 444.353325,367.634397 444.353325,365.77024 C442.561578,363.906083 438.978083,362.041925 438.978083,360.177768 C438.978083,360.177768 435.394589,356.449454 437.186336,354.585297 C437.186336,354.585297 435.394589,350.856982 435.394589,348.992825 C435.394589,348.992825 428.2276,347.128668 431.811094,339.672039 C435.394589,332.21541 444.353325,328.487096 447.93682,324.758781 C453.312062,321.030467 456.895556,319.16631 460.479051,321.030467 C465.854293,322.894624 481.980018,332.21541 485.563513,332.21541 C489.147007,334.079567 537.524184,334.079567 537.524184,334.079567 L535.732437,367.634397 L507.06448,367.634397 Z" id="路径" fill="#FFD9CC"></path>
                        <path d="M528.565447,328.487096 L510.647975,328.487096 C510.647975,328.487096 503.480985,358.313611 507.06448,376.955183 L539.315931,382.547655 L528.565447,328.487096 Z" id="路径" fill="#F3F3F3"></path>
                        <path d="M619.944559,265.105751 C619.944559,265.105751 610.985822,211.045192 623.528053,184.946991 C636.070284,158.84879 673.696977,158.84879 689.822703,175.626205 C705.948428,192.40362 718.490659,231.550921 716.698912,255.784965 C714.907164,280.019008 700.573186,304.253052 700.573186,322.894624 C700.573186,341.536196 695.197944,348.992825 688.030955,356.449454 C682.655713,363.906083 671.90523,378.81934 664.738241,382.547655 C657.571252,384.411812 523.190206,393.732598 524.981953,391.868441 C526.7737,390.004284 519.606711,343.400353 521.398458,328.487096 C521.398458,328.487096 566.19214,326.622939 573.359129,326.622939 C580.526119,328.487096 584.109613,326.622939 589.484855,322.894624 C594.860097,321.030467 594.860097,319.16631 598.443591,321.030467 C602.027086,322.894624 609.194075,322.894624 612.77757,321.030467 C616.361064,319.16631 619.944559,313.573838 619.944559,313.573838 C619.944559,313.573838 614.569317,289.339794 618.152811,283.747323 C621.736306,278.154851 619.944559,265.105751 619.944559,265.105751 Z" id="路径" fill="#0D439B"></path>
                        <path d="M333.264994,227.822607 L322.51451,255.784965 L304.597037,225.958449 C324.306258,220.365978 333.264994,209.181034 333.264994,209.181034 C333.264994,214.773506 333.264994,220.365978 333.264994,227.822607 Z" id="路径" fill="#FFFFFF"></path>
                        <path d="M299.221796,225.958449 C299.221796,225.958449 292.054807,231.550921 288.471312,239.00755 C284.887817,246.464179 281.304323,252.05665 281.304323,252.05665 L272.345586,233.415078 C270.553839,216.637663 268.762092,201.724406 265.178597,184.946991 C265.178597,188.675305 283.09607,220.365978 299.221796,225.958449 Z" id="路径" fill="#FFFFFF"></path>
                        <path d="M256.219861,160.712947 L259.803356,160.712947 C259.803356,160.712947 252.636366,149.528004 256.219861,142.071375 C259.803356,134.614746 249.052872,112.24486 261.595103,115.973174 C274.137334,119.701489 304.597037,108.516545 313.555774,99.1957593 C322.51451,89.8749732 326.098005,89.8749732 329.681499,93.6032876 C333.264994,97.3316021 336.848489,112.24486 336.848489,112.24486 C336.848489,112.24486 333.264994,97.3316021 329.681499,88.010816 C326.098005,78.69003 333.264994,69.3692439 302.80529,60.0484579 C272.345586,50.7276719 245.469377,63.7767723 236.510641,88.010816 C227.551904,112.24486 238.302388,136.478903 245.469377,143.935532 C250.844619,149.528004 256.219861,160.712947 256.219861,160.712947 Z" id="路径" fill="#0D439B"></path>
                        <path d="M193.508706,334.079567 L225.760157,335.943725 C225.760157,335.943725 215.009674,341.536196 215.009674,358.313611 C215.009674,375.091026 218.593168,375.091026 218.593168,375.091026 L164.84075,365.77024 C166.632497,367.634397 189.925212,334.079567 193.508706,334.079567 Z" id="路径" fill="#F3F3F3"></path>
                        <path d="M216.801421,334.079567 C197.092201,343.400353 189.925212,350.856982 186.341717,373.226869 L94.9626058,367.634397 C94.9626058,367.634397 96.7543531,328.487096 98.5461004,317.302152 C100.337848,306.117209 107.504837,287.475637 118.25532,276.290694 C127.214057,265.105751 146.923277,237.143393 148.715024,231.550921 C150.506771,225.958449 155.882013,220.365978 157.673761,216.637663 C159.465508,212.909349 163.049002,199.860248 164.84075,188.675305 C166.632497,175.626205 177.382981,173.762048 177.382981,173.762048 C177.382981,173.762048 186.341717,188.675305 184.54997,211.045192 C184.54997,235.279235 197.092201,255.784965 197.092201,270.698222 C197.092201,274.426537 195.300453,281.883166 195.300453,293.068109 L195.300453,293.068109 L180.966475,326.622939 L186.341717,328.487096 L216.801421,334.079567 Z" id="路径" fill="#0D439B"></path>
                        <g transform="translate(0.000000, 367.634397)">
                            <g>
                                <rect id="矩形" fill="#FFC941" x="252.636366" y="29.8265153" width="28.6679565" height="380.28807"></rect>
                                <path d="M523.190206,26.0982009 L12.542231,26.0982009 C5.37524184,26.0982009 0,20.5057293 0,13.0491004 L0,13.0491004 C0,5.59247162 5.37524184,0 12.542231,0 L523.190206,0 C530.357195,0 535.732437,5.59247162 535.732437,13.0491004 L535.732437,13.0491004 C535.732437,20.5057293 530.357195,26.0982009 523.190206,26.0982009 Z" id="路径" fill="#FFC941"></path>
                                <path d="M523.190206,26.0982009 C356.557709,39.1473013 186.341717,37.2831441 12.542231,26.0982009 L523.190206,26.0982009 Z" id="路径" fill="#FAAA4B"></path>
                            </g>
                            <path d="M417.477116,434.348629 L116.463573,434.348629 C116.463573,421.299529 127.214057,410.114586 139.756288,410.114586 L394.184401,410.114586 C406.726632,410.114586 417.477116,421.299529 417.477116,434.348629 Z" id="路径" fill="#FAAA4B"></path>
                        </g>
                        <path d="M388.80916,783.341454 L352.974214,796.390555 L327.889752,762.835725 C327.889752,762.835725 342.22373,747.922467 349.390719,733.00921 C352.974214,725.552581 358.349456,716.231795 361.93295,708.775166 C361.93295,708.775166 363.724698,708.775166 363.724698,708.775166 C379.850423,712.50348 399.559643,721.824266 404.934885,727.416738 C399.559643,736.737524 387.017412,764.699882 388.80916,783.341454 Z" id="路径" fill="#E8EAE9"></path>
                        <g transform="translate(226.435308, 759.107411)" id="路径">
                            <path d="M17.2423216,50.3322446 L4.70009069,50.3322446 C4.70009069,50.3322446 -0.675151149,57.7888734 1.11659613,59.6530306 C2.90834341,61.5171878 40.5350363,76.4304455 65.6194982,82.0229171 C88.9122128,87.6153887 121.163664,78.2946027 126.538906,72.7021311 L126.538906,82.0229171 L162.373851,82.0229171 C167.749093,82.0229171 171.332588,78.2946027 171.332588,72.7021311 L171.332588,59.6530306 L158.790357,50.3322446 L17.2423216,50.3322446 Z" fill="#1A2056"></path>
                            <path d="M103.246191,0 C103.246191,0 112.204927,0 117.580169,9.32078604 C122.955411,18.6415721 131.914148,24.2340437 139.081137,26.0982009 C146.248126,27.9623581 162.373851,20.5057293 164.165599,14.9132577 C164.165599,14.9132577 171.332588,46.6039302 169.54084,59.6530306 C169.54084,59.6530306 140.872884,59.6530306 121.163664,68.9738167 C99.6626965,76.4304455 92.4957074,82.0229171 69.2029927,76.4304455 C45.9102781,70.8379739 8.28358525,55.9247162 4.70009069,50.3322446 C4.70009069,50.3322446 20.8258162,48.4680874 36.9515417,46.6039302 C53.0772672,44.739773 69.2029927,26.0982009 79.9534764,16.7774149 C90.7039601,5.59247162 103.246191,0 103.246191,0 Z" fill="#0D439B"></path>
                        </g>
                    </g>
                    <path d="M396.464932,265 L225.973247,265 C220.589299,265 217,268.745455 217,274.363636 L229.562545,368 L391.080984,368 L403.643529,274.363636 C405.438178,270.618182 400.05423,265 396.464932,265 Z" id="路径" fill="#CED6E0"></path>
                    <ellipse id="椭圆形" fill="#ADB3BA" cx="312" cy="317.5" rx="9" ry="5.5"></ellipse>
                </g>
            </g>
        </g>
    </g>
</svg>